<!-- icon666.com - MILLIONS vector ICONS FREE --><svg enable-background="new 0 0 64 64" viewBox="0 0 64 64" xmlns="http://www.w3.org/2000/svg"><g id="Layer_2"><g><g><path d="m57.5 31.4h-51.2v25.2c0 2 1.6 3.7 3.7 3.7h43.9c2 0 3.7-1.6 3.7-3.7v-25.2z" fill="#f6486e"></path></g><g><path d="m53.9 61.3h-43.9c-2.6 0-4.7-2.1-4.7-4.7v-25.2c0-.5.4-1 1-1h51.2c.5 0 1 .4 1 1v25.2c0 2.6-2.1 4.7-4.6 4.7zm-46.6-28.9v24.2c0 1.5 1.2 2.7 2.7 2.7h43.9c1.5 0 2.7-1.2 2.7-2.7v-24.2z" fill="#24355f"></path></g><g><path d="m19.8 35.9c-1.6 0-2.9 1.3-2.9 2.9v14c0 1.6 1.3 2.9 2.9 2.9 1.6 0 2.9-1.3 2.9-2.9v-14c0-1.6-1.3-2.9-2.9-2.9z" fill="#86a4eb"></path></g><g><path d="m19.8 56.7c-2.2 0-3.9-1.8-3.9-3.9v-14c0-2.2 1.8-3.9 3.9-3.9s3.9 1.8 3.9 3.9v14c0 2.2-1.7 3.9-3.9 3.9zm0-19.8c-1.1 0-2 .9-2 2v14c0 1.1.9 2 2 2s2-.9 2-2v-14c0-1.1-.9-2-2-2z" fill="#24355f"></path></g><g><path d="m31.9 35.6c-1.6 0-2.9 1.3-2.9 2.9v14c0 1.6 1.3 2.9 2.9 2.9 1.6 0 2.9-1.3 2.9-2.9v-14c.1-1.6-1.3-2.9-2.9-2.9z" fill="#86a4eb"></path></g><g><path d="m44 35.3c-1.6 0-2.9 1.3-2.9 2.9v14c0 1.6 1.3 2.9 2.9 2.9 1.6 0 2.9-1.3 2.9-2.9v-14c.1-1.6-1.3-2.9-2.9-2.9z" fill="#86a4eb"></path></g><g><path d="m31.9 56.4c-2.2 0-3.9-1.8-3.9-3.9v-14c0-2.2 1.8-3.9 3.9-3.9s3.9 1.8 3.9 3.9v14c0 2.2-1.7 3.9-3.9 3.9zm0-19.8c-1.1 0-2 .9-2 2v14c0 1.1.9 2 2 2s2-.9 2-2v-14c0-1.1-.9-2-2-2z" fill="#24355f"></path></g><g><path d="m44 56.1c-2.2 0-3.9-1.8-3.9-3.9v-14c0-2.2 1.8-3.9 3.9-3.9s3.9 1.8 3.9 3.9v14c0 2.2-1.7 3.9-3.9 3.9zm0-19.8c-1.1 0-2 .9-2 2v14c0 1.1.9 2 2 2s2-.9 2-2v-14c0-1.1-.9-2-2-2z" fill="#24355f"></path></g><g><path d="m58.3 31.3-52.5.2c-2.1 0-3.8-1.7-3.8-3.7v-3c0-2.1 1.7-3.8 3.7-3.8l52.5-.2c2.1 0 3.8 1.7 3.8 3.7v3c0 2.1-1.7 3.8-3.7 3.8z" fill="#f6486e"></path></g><g><path d="m5.8 32.5c-2.6 0-4.7-2.1-4.7-4.7v-3c-.1-2.7 2-4.8 4.6-4.8l52.5-.2c1.3 0 2.4.5 3.3 1.4s1.4 2.1 1.4 3.3v3c0 2.6-2.1 4.8-4.7 4.8zm52.4-10.7-52.5.2c-1.5 0-2.7 1.2-2.7 2.7v3c0 1.5 1.2 2.8 2.8 2.8l52.5-.2c.7 0 1.4-.3 2-.8.5-.5.8-1.2.8-2v-3c0-.7-.3-1.4-.8-2-.6-.5-1.3-.7-2.1-.7z" fill="#24355f"></path></g><g><g><path d="m53.8 29.3-1.3.9c-2 1.3-4.7.8-6.1-1.2l-11.9-17.6c-1.3-2-.8-4.7 1.2-6.1l1.3-.8c2-1.3 4.7-.8 6.1 1.2l11.9 17.6c1.3 2 .8 4.7-1.2 6z" fill="#fff5b7"></path></g><g><path d="m50.1 28.1c-.1 0-.3 0-.4 0-.7-.1-1.4-.5-1.8-1.1s-.6-1.4-.5-2.1.5-1.4 1.1-1.8 1.4-.6 2.1-.5 1.4.5 1.8 1.1.6 1.4.5 2.1-.5 1.4-1.1 1.8c-.5.3-1.1.5-1.7.5zm0-3.7c-.2 0-.4.1-.5.2-.2.1-.3.3-.3.6 0 .2 0 .4.2.6.1.2.3.3.6.3.2 0 .4 0 .6-.2.2-.1.3-.3.3-.6 0-.2 0-.4-.2-.6s-.3-.3-.6-.3c0 0 0 0-.1 0z" fill="#24355f"></path></g><g><path d="m50.1 31.9c-.3 0-.7 0-1-.1-1.4-.3-2.6-1.1-3.4-2.3l-12-17.6c-.8-1.2-1.1-2.6-.8-4s1.1-2.6 2.3-3.4l1.3-.9c2.4-1.7 5.8-1 7.4 1.4l11.9 17.6c1.7 2.4 1 5.8-1.4 7.4l-1.3 1c-.9.6-2 .9-3 .9zm-10.7-27.2c-.7 0-1.3.2-1.9.6l-1.3.9c-.7.5-1.3 1.3-1.4 2.2-.2.9 0 1.8.5 2.5l11.9 17.6c.5.7 1.3 1.3 2.2 1.4.9.2 1.8 0 2.5-.5l1.3-.9c1.5-1 1.9-3.1.9-4.7l-11.9-17.6c-.6-1-1.7-1.5-2.8-1.5z" fill="#24355f"></path></g></g><g><g><path d="m10.7 29.3 1.3.9c2 1.3 4.7.8 6.1-1.2l11.9-17.6c1.3-2 .8-4.7-1.2-6.1l-1.3-.9c-2-1.3-4.7-.8-6.1 1.2l-11.8 17.7c-1.4 2-.9 4.7 1.1 6z" fill="#fff5b7"></path></g><g><path d="m14.4 28.1c-1.4 0-2.6-1-2.8-2.4-.2-1.5.8-3 2.4-3.2.7-.1 1.5.1 2.1.5s1 1.1 1.1 1.8-.1 1.5-.5 2.1-1.1 1-1.8 1.1c-.2.1-.4.1-.5.1zm-.8-2.7c.1.5.5.8 1 .7.2 0 .4-.2.6-.3.1-.2.2-.4.2-.6s-.2-.4-.3-.6c-.2-.1-.4-.2-.6-.2-.7.1-1 .5-.9 1z" fill="#24355f"></path></g><g><path d="m14.4 31.9c-1 0-2.1-.3-3-.9l-1.3-.9c-1.2-.8-2-2-2.3-3.4s0-2.8.8-4l12.1-17.6c.8-1.2 2-2 3.4-2.3s2.8 0 4 .8l1.3.9c2.4 1.7 3.1 5 1.4 7.4l-11.9 17.7c-1 1.5-2.7 2.3-4.5 2.3zm-3.1-3.4 1.3.9c1.5 1 3.6.6 4.7-.9l11.9-17.6c1-1.5.6-3.6-.9-4.7l-1.3-.9c-.7-.5-1.6-.7-2.5-.5s-1.7.7-2.2 1.4l-11.9 17.6c-.5.7-.7 1.6-.5 2.5.1.9.6 1.7 1.4 2.2z" fill="#24355f"></path></g></g></g></g><g id="Layer_1" display="none"><path d="m3 3h58v58h-58z" style="display:inline;fill:none;stroke:#ff6700;stroke-width:.25;stroke-linecap:round;stroke-linejoin:round;stroke-miterlimit:10"></path></g></svg>