<!-- icon666.com - MILLIONS vector ICONS FREE --><svg version="1.1" id="Capa_1" xmlns="http://www.w3.org/2000/svg" xmlns:xlink="http://www.w3.org/1999/xlink" x="0px" y="0px" viewBox="0 0 512.001 512.001" style="enable-background:new 0 0 512.001 512.001;" xml:space="preserve"><g><g><path d="M498.583,164.688L265.6,3.004c-5.766-4.008-13.429-4.003-19.2,0L13.418,164.688c-4.536,3.149-7.242,8.32-7.242,13.839 v316.632c0,9.302,7.54,16.842,16.842,16.842h465.965c9.302,0,16.842-7.54,16.842-16.842V178.527 C505.825,173.003,503.125,167.838,498.583,164.688z M472.141,478.316H39.86V187.341L256,37.345l216.14,149.996V478.316z"></path></g></g><g><g><rect x="81.974" y="149.942" transform="matrix(0.7576 -0.6528 0.6528 0.7576 -150.8379 129.4239)" width="33.686" height="235.667"></rect></g></g><g><g><path d="M267.442,270.019c-6.467-5.968-16.427-5.968-22.872,0L13.833,483.352l22.866,24.735L256,305.326l219.301,202.762 l22.877-24.735L267.442,270.019z"></path></g></g><g><g><rect x="297.519" y="251.794" transform="matrix(0.641 -0.7676 0.7676 0.641 -57.2334 414.915)" width="234.773" height="33.686"></rect></g></g></svg>