<!-- icon666.com - MILLIONS vector ICONS FREE --><svg id="Capa_1" enable-background="new 0 0 527.972 527.972" viewBox="0 0 527.972 527.972" xmlns="http://www.w3.org/2000/svg"><g><g><path d="m448.777 527.972h-26.399c-57.008 0-112.324-11.172-164.414-33.205-50.299-21.276-95.467-51.727-134.249-90.509-38.783-38.783-69.235-83.951-90.51-134.249-22.033-52.091-33.204-107.407-33.204-164.414v-26.399c0-21.154 8.238-41.042 23.196-56s34.845-23.196 55.999-23.196h86.587c11.166.008 21.835 3.46 30.872 9.981 9.038 6.52 15.678 15.557 19.2 26.133l39.543 118.6c4.014 12.078 3.54 25.178-1.329 36.91-4.866 11.733-13.805 21.322-25.17 26.998l-35.794 17.921c23.441 40.951 57.373 74.883 98.324 98.324l17.931-35.815c5.664-11.341 15.254-20.282 26.993-25.151 11.733-4.865 24.83-5.34 36.884-1.334l118.631 39.553c10.574 3.518 19.619 10.167 26.142 19.221 6.524 9.052 9.971 19.736 9.962 30.892v86.543c0 21.155-8.238 41.043-23.197 56-14.956 14.957-34.843 23.196-55.998 23.196zm-369.581-475.174c-7.052 0-13.681 2.746-18.667 7.732s-7.732 11.615-7.732 18.667v26.399c0 203.787 165.793 369.579 369.579 369.579h26.399c7.051 0 13.679-2.744 18.664-7.73 4.988-4.987 7.733-11.615 7.733-18.667v-86.561l-118.616-39.554-29.817 59.61c-6.345 12.673-21.566 18.076-34.475 12.238-70.534-31.87-126.932-88.266-158.802-158.802-5.835-12.914-.433-28.131 12.239-34.475l59.581-29.83-39.516-118.599z" fill="rgb(255,255,255)"></path></g></g></svg>